<mxfile host="app.diagrams.net" modified="2023-09-23T13:05:16.561Z" agent="Mozilla/5.0 (X11; Ubuntu; Linux x86_64; rv:102.0) Gecko/20100101 Firefox/102.0" etag="mAgM1qwsGp3xMWWxvbho" version="21.7.5" type="github">
  <diagram name="Страница — 1" id="4z5fc7bNoQgmpT-226Q3">
    <mxGraphModel dx="1304" dy="1876" grid="1" gridSize="10" guides="1" tooltips="1" connect="1" arrows="1" fold="1" page="1" pageScale="1" pageWidth="827" pageHeight="1169" math="0" shadow="0">
      <root>
        <mxCell id="0" />
        <mxCell id="1" parent="0" />
        <mxCell id="6TUqdnj37lVu8lsGp0ND-75" value="" style="shape=table;startSize=0;container=1;collapsible=0;childLayout=tableLayout;" vertex="1" parent="1">
          <mxGeometry x="10" y="-1150" width="800" height="750" as="geometry" />
        </mxCell>
        <mxCell id="6TUqdnj37lVu8lsGp0ND-76" value="" style="shape=tableRow;horizontal=0;startSize=0;swimlaneHead=0;swimlaneBody=0;strokeColor=inherit;top=0;left=0;bottom=0;right=0;collapsible=0;dropTarget=0;fillColor=none;points=[[0,0.5],[1,0.5]];portConstraint=eastwest;" vertex="1" parent="6TUqdnj37lVu8lsGp0ND-75">
          <mxGeometry width="800" height="96" as="geometry" />
        </mxCell>
        <mxCell id="6TUqdnj37lVu8lsGp0ND-77" value="" style="shape=partialRectangle;html=1;whiteSpace=wrap;connectable=0;strokeColor=inherit;overflow=hidden;fillColor=none;top=0;left=0;bottom=0;right=0;pointerEvents=1;" vertex="1" parent="6TUqdnj37lVu8lsGp0ND-76">
          <mxGeometry width="101" height="96" as="geometry">
            <mxRectangle width="101" height="96" as="alternateBounds" />
          </mxGeometry>
        </mxCell>
        <mxCell id="6TUqdnj37lVu8lsGp0ND-78" value="" style="shape=partialRectangle;html=1;whiteSpace=wrap;connectable=0;strokeColor=inherit;overflow=hidden;fillColor=none;top=0;left=0;bottom=0;right=0;pointerEvents=1;" vertex="1" parent="6TUqdnj37lVu8lsGp0ND-76">
          <mxGeometry x="101" width="100" height="96" as="geometry">
            <mxRectangle width="100" height="96" as="alternateBounds" />
          </mxGeometry>
        </mxCell>
        <mxCell id="6TUqdnj37lVu8lsGp0ND-79" value="" style="shape=partialRectangle;html=1;whiteSpace=wrap;connectable=0;strokeColor=inherit;overflow=hidden;fillColor=none;top=0;left=0;bottom=0;right=0;pointerEvents=1;" vertex="1" parent="6TUqdnj37lVu8lsGp0ND-76">
          <mxGeometry x="201" width="101" height="96" as="geometry">
            <mxRectangle width="101" height="96" as="alternateBounds" />
          </mxGeometry>
        </mxCell>
        <mxCell id="6TUqdnj37lVu8lsGp0ND-80" value="" style="shape=partialRectangle;html=1;whiteSpace=wrap;connectable=0;strokeColor=inherit;overflow=hidden;fillColor=none;top=0;left=0;bottom=0;right=0;pointerEvents=1;" vertex="1" parent="6TUqdnj37lVu8lsGp0ND-76">
          <mxGeometry x="302" width="98" height="96" as="geometry">
            <mxRectangle width="98" height="96" as="alternateBounds" />
          </mxGeometry>
        </mxCell>
        <mxCell id="6TUqdnj37lVu8lsGp0ND-81" value="" style="shape=partialRectangle;html=1;whiteSpace=wrap;connectable=0;strokeColor=inherit;overflow=hidden;fillColor=none;top=0;left=0;bottom=0;right=0;pointerEvents=1;" vertex="1" parent="6TUqdnj37lVu8lsGp0ND-76">
          <mxGeometry x="400" width="101" height="96" as="geometry">
            <mxRectangle width="101" height="96" as="alternateBounds" />
          </mxGeometry>
        </mxCell>
        <mxCell id="6TUqdnj37lVu8lsGp0ND-82" value="" style="shape=partialRectangle;html=1;whiteSpace=wrap;connectable=0;strokeColor=inherit;overflow=hidden;fillColor=none;top=0;left=0;bottom=0;right=0;pointerEvents=1;" vertex="1" parent="6TUqdnj37lVu8lsGp0ND-76">
          <mxGeometry x="501" width="100" height="96" as="geometry">
            <mxRectangle width="100" height="96" as="alternateBounds" />
          </mxGeometry>
        </mxCell>
        <mxCell id="6TUqdnj37lVu8lsGp0ND-83" value="" style="shape=partialRectangle;html=1;whiteSpace=wrap;connectable=0;strokeColor=inherit;overflow=hidden;fillColor=none;top=0;left=0;bottom=0;right=0;pointerEvents=1;" vertex="1" parent="6TUqdnj37lVu8lsGp0ND-76">
          <mxGeometry x="601" width="101" height="96" as="geometry">
            <mxRectangle width="101" height="96" as="alternateBounds" />
          </mxGeometry>
        </mxCell>
        <mxCell id="6TUqdnj37lVu8lsGp0ND-84" value="" style="shape=partialRectangle;html=1;whiteSpace=wrap;connectable=0;strokeColor=inherit;overflow=hidden;fillColor=none;top=0;left=0;bottom=0;right=0;pointerEvents=1;" vertex="1" parent="6TUqdnj37lVu8lsGp0ND-76">
          <mxGeometry x="702" width="98" height="96" as="geometry">
            <mxRectangle width="98" height="96" as="alternateBounds" />
          </mxGeometry>
        </mxCell>
        <mxCell id="6TUqdnj37lVu8lsGp0ND-85" value="" style="shape=tableRow;horizontal=0;startSize=0;swimlaneHead=0;swimlaneBody=0;strokeColor=inherit;top=0;left=0;bottom=0;right=0;collapsible=0;dropTarget=0;fillColor=none;points=[[0,0.5],[1,0.5]];portConstraint=eastwest;" vertex="1" parent="6TUqdnj37lVu8lsGp0ND-75">
          <mxGeometry y="96" width="800" height="93" as="geometry" />
        </mxCell>
        <mxCell id="6TUqdnj37lVu8lsGp0ND-86" value="" style="shape=partialRectangle;html=1;whiteSpace=wrap;connectable=0;strokeColor=inherit;overflow=hidden;fillColor=none;top=0;left=0;bottom=0;right=0;pointerEvents=1;" vertex="1" parent="6TUqdnj37lVu8lsGp0ND-85">
          <mxGeometry width="101" height="93" as="geometry">
            <mxRectangle width="101" height="93" as="alternateBounds" />
          </mxGeometry>
        </mxCell>
        <mxCell id="6TUqdnj37lVu8lsGp0ND-87" value="" style="shape=partialRectangle;html=1;whiteSpace=wrap;connectable=0;strokeColor=inherit;overflow=hidden;fillColor=none;top=0;left=0;bottom=0;right=0;pointerEvents=1;" vertex="1" parent="6TUqdnj37lVu8lsGp0ND-85">
          <mxGeometry x="101" width="100" height="93" as="geometry">
            <mxRectangle width="100" height="93" as="alternateBounds" />
          </mxGeometry>
        </mxCell>
        <mxCell id="6TUqdnj37lVu8lsGp0ND-88" value="" style="shape=partialRectangle;html=1;whiteSpace=wrap;connectable=0;strokeColor=inherit;overflow=hidden;fillColor=none;top=0;left=0;bottom=0;right=0;pointerEvents=1;" vertex="1" parent="6TUqdnj37lVu8lsGp0ND-85">
          <mxGeometry x="201" width="101" height="93" as="geometry">
            <mxRectangle width="101" height="93" as="alternateBounds" />
          </mxGeometry>
        </mxCell>
        <mxCell id="6TUqdnj37lVu8lsGp0ND-89" value="" style="shape=partialRectangle;html=1;whiteSpace=wrap;connectable=0;strokeColor=inherit;overflow=hidden;fillColor=none;top=0;left=0;bottom=0;right=0;pointerEvents=1;" vertex="1" parent="6TUqdnj37lVu8lsGp0ND-85">
          <mxGeometry x="302" width="98" height="93" as="geometry">
            <mxRectangle width="98" height="93" as="alternateBounds" />
          </mxGeometry>
        </mxCell>
        <mxCell id="6TUqdnj37lVu8lsGp0ND-90" value="" style="shape=partialRectangle;html=1;whiteSpace=wrap;connectable=0;strokeColor=inherit;overflow=hidden;fillColor=none;top=0;left=0;bottom=0;right=0;pointerEvents=1;" vertex="1" parent="6TUqdnj37lVu8lsGp0ND-85">
          <mxGeometry x="400" width="101" height="93" as="geometry">
            <mxRectangle width="101" height="93" as="alternateBounds" />
          </mxGeometry>
        </mxCell>
        <mxCell id="6TUqdnj37lVu8lsGp0ND-91" value="" style="shape=partialRectangle;html=1;whiteSpace=wrap;connectable=0;strokeColor=inherit;overflow=hidden;fillColor=none;top=0;left=0;bottom=0;right=0;pointerEvents=1;" vertex="1" parent="6TUqdnj37lVu8lsGp0ND-85">
          <mxGeometry x="501" width="100" height="93" as="geometry">
            <mxRectangle width="100" height="93" as="alternateBounds" />
          </mxGeometry>
        </mxCell>
        <mxCell id="6TUqdnj37lVu8lsGp0ND-92" value="" style="shape=partialRectangle;html=1;whiteSpace=wrap;connectable=0;strokeColor=inherit;overflow=hidden;fillColor=none;top=0;left=0;bottom=0;right=0;pointerEvents=1;" vertex="1" parent="6TUqdnj37lVu8lsGp0ND-85">
          <mxGeometry x="601" width="101" height="93" as="geometry">
            <mxRectangle width="101" height="93" as="alternateBounds" />
          </mxGeometry>
        </mxCell>
        <mxCell id="6TUqdnj37lVu8lsGp0ND-93" value="" style="shape=partialRectangle;html=1;whiteSpace=wrap;connectable=0;strokeColor=inherit;overflow=hidden;fillColor=none;top=0;left=0;bottom=0;right=0;pointerEvents=1;" vertex="1" parent="6TUqdnj37lVu8lsGp0ND-85">
          <mxGeometry x="702" width="98" height="93" as="geometry">
            <mxRectangle width="98" height="93" as="alternateBounds" />
          </mxGeometry>
        </mxCell>
        <mxCell id="6TUqdnj37lVu8lsGp0ND-94" value="" style="shape=tableRow;horizontal=0;startSize=0;swimlaneHead=0;swimlaneBody=0;strokeColor=inherit;top=0;left=0;bottom=0;right=0;collapsible=0;dropTarget=0;fillColor=none;points=[[0,0.5],[1,0.5]];portConstraint=eastwest;" vertex="1" parent="6TUqdnj37lVu8lsGp0ND-75">
          <mxGeometry y="189" width="800" height="95" as="geometry" />
        </mxCell>
        <mxCell id="6TUqdnj37lVu8lsGp0ND-95" value="" style="shape=partialRectangle;html=1;whiteSpace=wrap;connectable=0;strokeColor=inherit;overflow=hidden;fillColor=none;top=0;left=0;bottom=0;right=0;pointerEvents=1;" vertex="1" parent="6TUqdnj37lVu8lsGp0ND-94">
          <mxGeometry width="101" height="95" as="geometry">
            <mxRectangle width="101" height="95" as="alternateBounds" />
          </mxGeometry>
        </mxCell>
        <mxCell id="6TUqdnj37lVu8lsGp0ND-96" value="" style="shape=partialRectangle;html=1;whiteSpace=wrap;connectable=0;strokeColor=inherit;overflow=hidden;fillColor=none;top=0;left=0;bottom=0;right=0;pointerEvents=1;" vertex="1" parent="6TUqdnj37lVu8lsGp0ND-94">
          <mxGeometry x="101" width="100" height="95" as="geometry">
            <mxRectangle width="100" height="95" as="alternateBounds" />
          </mxGeometry>
        </mxCell>
        <mxCell id="6TUqdnj37lVu8lsGp0ND-97" value="" style="shape=partialRectangle;html=1;whiteSpace=wrap;connectable=0;strokeColor=inherit;overflow=hidden;fillColor=none;top=0;left=0;bottom=0;right=0;pointerEvents=1;" vertex="1" parent="6TUqdnj37lVu8lsGp0ND-94">
          <mxGeometry x="201" width="101" height="95" as="geometry">
            <mxRectangle width="101" height="95" as="alternateBounds" />
          </mxGeometry>
        </mxCell>
        <mxCell id="6TUqdnj37lVu8lsGp0ND-98" value="" style="shape=partialRectangle;html=1;whiteSpace=wrap;connectable=0;strokeColor=inherit;overflow=hidden;fillColor=none;top=0;left=0;bottom=0;right=0;pointerEvents=1;" vertex="1" parent="6TUqdnj37lVu8lsGp0ND-94">
          <mxGeometry x="302" width="98" height="95" as="geometry">
            <mxRectangle width="98" height="95" as="alternateBounds" />
          </mxGeometry>
        </mxCell>
        <mxCell id="6TUqdnj37lVu8lsGp0ND-99" value="" style="shape=partialRectangle;html=1;whiteSpace=wrap;connectable=0;strokeColor=inherit;overflow=hidden;fillColor=none;top=0;left=0;bottom=0;right=0;pointerEvents=1;" vertex="1" parent="6TUqdnj37lVu8lsGp0ND-94">
          <mxGeometry x="400" width="101" height="95" as="geometry">
            <mxRectangle width="101" height="95" as="alternateBounds" />
          </mxGeometry>
        </mxCell>
        <mxCell id="6TUqdnj37lVu8lsGp0ND-100" value="" style="shape=partialRectangle;html=1;whiteSpace=wrap;connectable=0;strokeColor=inherit;overflow=hidden;fillColor=none;top=0;left=0;bottom=0;right=0;pointerEvents=1;" vertex="1" parent="6TUqdnj37lVu8lsGp0ND-94">
          <mxGeometry x="501" width="100" height="95" as="geometry">
            <mxRectangle width="100" height="95" as="alternateBounds" />
          </mxGeometry>
        </mxCell>
        <mxCell id="6TUqdnj37lVu8lsGp0ND-101" value="" style="shape=partialRectangle;html=1;whiteSpace=wrap;connectable=0;strokeColor=inherit;overflow=hidden;fillColor=none;top=0;left=0;bottom=0;right=0;pointerEvents=1;" vertex="1" parent="6TUqdnj37lVu8lsGp0ND-94">
          <mxGeometry x="601" width="101" height="95" as="geometry">
            <mxRectangle width="101" height="95" as="alternateBounds" />
          </mxGeometry>
        </mxCell>
        <mxCell id="6TUqdnj37lVu8lsGp0ND-102" value="" style="shape=partialRectangle;html=1;whiteSpace=wrap;connectable=0;strokeColor=inherit;overflow=hidden;fillColor=none;top=0;left=0;bottom=0;right=0;pointerEvents=1;" vertex="1" parent="6TUqdnj37lVu8lsGp0ND-94">
          <mxGeometry x="702" width="98" height="95" as="geometry">
            <mxRectangle width="98" height="95" as="alternateBounds" />
          </mxGeometry>
        </mxCell>
        <mxCell id="6TUqdnj37lVu8lsGp0ND-103" value="" style="shape=tableRow;horizontal=0;startSize=0;swimlaneHead=0;swimlaneBody=0;strokeColor=inherit;top=0;left=0;bottom=0;right=0;collapsible=0;dropTarget=0;fillColor=none;points=[[0,0.5],[1,0.5]];portConstraint=eastwest;" vertex="1" parent="6TUqdnj37lVu8lsGp0ND-75">
          <mxGeometry y="284" width="800" height="91" as="geometry" />
        </mxCell>
        <mxCell id="6TUqdnj37lVu8lsGp0ND-104" value="" style="shape=partialRectangle;html=1;whiteSpace=wrap;connectable=0;strokeColor=inherit;overflow=hidden;fillColor=none;top=0;left=0;bottom=0;right=0;pointerEvents=1;" vertex="1" parent="6TUqdnj37lVu8lsGp0ND-103">
          <mxGeometry width="101" height="91" as="geometry">
            <mxRectangle width="101" height="91" as="alternateBounds" />
          </mxGeometry>
        </mxCell>
        <mxCell id="6TUqdnj37lVu8lsGp0ND-105" value="" style="shape=partialRectangle;html=1;whiteSpace=wrap;connectable=0;strokeColor=inherit;overflow=hidden;fillColor=none;top=0;left=0;bottom=0;right=0;pointerEvents=1;" vertex="1" parent="6TUqdnj37lVu8lsGp0ND-103">
          <mxGeometry x="101" width="100" height="91" as="geometry">
            <mxRectangle width="100" height="91" as="alternateBounds" />
          </mxGeometry>
        </mxCell>
        <mxCell id="6TUqdnj37lVu8lsGp0ND-106" value="" style="shape=partialRectangle;html=1;whiteSpace=wrap;connectable=0;strokeColor=inherit;overflow=hidden;fillColor=none;top=0;left=0;bottom=0;right=0;pointerEvents=1;" vertex="1" parent="6TUqdnj37lVu8lsGp0ND-103">
          <mxGeometry x="201" width="101" height="91" as="geometry">
            <mxRectangle width="101" height="91" as="alternateBounds" />
          </mxGeometry>
        </mxCell>
        <mxCell id="6TUqdnj37lVu8lsGp0ND-107" value="" style="shape=partialRectangle;html=1;whiteSpace=wrap;connectable=0;strokeColor=inherit;overflow=hidden;fillColor=none;top=0;left=0;bottom=0;right=0;pointerEvents=1;" vertex="1" parent="6TUqdnj37lVu8lsGp0ND-103">
          <mxGeometry x="302" width="98" height="91" as="geometry">
            <mxRectangle width="98" height="91" as="alternateBounds" />
          </mxGeometry>
        </mxCell>
        <mxCell id="6TUqdnj37lVu8lsGp0ND-108" value="" style="shape=partialRectangle;html=1;whiteSpace=wrap;connectable=0;strokeColor=inherit;overflow=hidden;fillColor=none;top=0;left=0;bottom=0;right=0;pointerEvents=1;" vertex="1" parent="6TUqdnj37lVu8lsGp0ND-103">
          <mxGeometry x="400" width="101" height="91" as="geometry">
            <mxRectangle width="101" height="91" as="alternateBounds" />
          </mxGeometry>
        </mxCell>
        <mxCell id="6TUqdnj37lVu8lsGp0ND-109" value="" style="shape=partialRectangle;html=1;whiteSpace=wrap;connectable=0;strokeColor=inherit;overflow=hidden;fillColor=none;top=0;left=0;bottom=0;right=0;pointerEvents=1;" vertex="1" parent="6TUqdnj37lVu8lsGp0ND-103">
          <mxGeometry x="501" width="100" height="91" as="geometry">
            <mxRectangle width="100" height="91" as="alternateBounds" />
          </mxGeometry>
        </mxCell>
        <mxCell id="6TUqdnj37lVu8lsGp0ND-110" value="" style="shape=partialRectangle;html=1;whiteSpace=wrap;connectable=0;strokeColor=inherit;overflow=hidden;fillColor=none;top=0;left=0;bottom=0;right=0;pointerEvents=1;" vertex="1" parent="6TUqdnj37lVu8lsGp0ND-103">
          <mxGeometry x="601" width="101" height="91" as="geometry">
            <mxRectangle width="101" height="91" as="alternateBounds" />
          </mxGeometry>
        </mxCell>
        <mxCell id="6TUqdnj37lVu8lsGp0ND-111" value="" style="shape=partialRectangle;html=1;whiteSpace=wrap;connectable=0;strokeColor=inherit;overflow=hidden;fillColor=none;top=0;left=0;bottom=0;right=0;pointerEvents=1;" vertex="1" parent="6TUqdnj37lVu8lsGp0ND-103">
          <mxGeometry x="702" width="98" height="91" as="geometry">
            <mxRectangle width="98" height="91" as="alternateBounds" />
          </mxGeometry>
        </mxCell>
        <mxCell id="6TUqdnj37lVu8lsGp0ND-112" value="" style="shape=tableRow;horizontal=0;startSize=0;swimlaneHead=0;swimlaneBody=0;strokeColor=inherit;top=0;left=0;bottom=0;right=0;collapsible=0;dropTarget=0;fillColor=none;points=[[0,0.5],[1,0.5]];portConstraint=eastwest;" vertex="1" parent="6TUqdnj37lVu8lsGp0ND-75">
          <mxGeometry y="375" width="800" height="96" as="geometry" />
        </mxCell>
        <mxCell id="6TUqdnj37lVu8lsGp0ND-113" value="" style="shape=partialRectangle;html=1;whiteSpace=wrap;connectable=0;strokeColor=inherit;overflow=hidden;fillColor=none;top=0;left=0;bottom=0;right=0;pointerEvents=1;" vertex="1" parent="6TUqdnj37lVu8lsGp0ND-112">
          <mxGeometry width="101" height="96" as="geometry">
            <mxRectangle width="101" height="96" as="alternateBounds" />
          </mxGeometry>
        </mxCell>
        <mxCell id="6TUqdnj37lVu8lsGp0ND-114" value="" style="shape=partialRectangle;html=1;whiteSpace=wrap;connectable=0;strokeColor=inherit;overflow=hidden;fillColor=none;top=0;left=0;bottom=0;right=0;pointerEvents=1;" vertex="1" parent="6TUqdnj37lVu8lsGp0ND-112">
          <mxGeometry x="101" width="100" height="96" as="geometry">
            <mxRectangle width="100" height="96" as="alternateBounds" />
          </mxGeometry>
        </mxCell>
        <mxCell id="6TUqdnj37lVu8lsGp0ND-115" value="" style="shape=partialRectangle;html=1;whiteSpace=wrap;connectable=0;strokeColor=inherit;overflow=hidden;fillColor=none;top=0;left=0;bottom=0;right=0;pointerEvents=1;" vertex="1" parent="6TUqdnj37lVu8lsGp0ND-112">
          <mxGeometry x="201" width="101" height="96" as="geometry">
            <mxRectangle width="101" height="96" as="alternateBounds" />
          </mxGeometry>
        </mxCell>
        <mxCell id="6TUqdnj37lVu8lsGp0ND-116" value="" style="shape=partialRectangle;html=1;whiteSpace=wrap;connectable=0;strokeColor=inherit;overflow=hidden;fillColor=none;top=0;left=0;bottom=0;right=0;pointerEvents=1;" vertex="1" parent="6TUqdnj37lVu8lsGp0ND-112">
          <mxGeometry x="302" width="98" height="96" as="geometry">
            <mxRectangle width="98" height="96" as="alternateBounds" />
          </mxGeometry>
        </mxCell>
        <mxCell id="6TUqdnj37lVu8lsGp0ND-117" value="" style="shape=partialRectangle;html=1;whiteSpace=wrap;connectable=0;strokeColor=inherit;overflow=hidden;fillColor=none;top=0;left=0;bottom=0;right=0;pointerEvents=1;" vertex="1" parent="6TUqdnj37lVu8lsGp0ND-112">
          <mxGeometry x="400" width="101" height="96" as="geometry">
            <mxRectangle width="101" height="96" as="alternateBounds" />
          </mxGeometry>
        </mxCell>
        <mxCell id="6TUqdnj37lVu8lsGp0ND-118" value="" style="shape=partialRectangle;html=1;whiteSpace=wrap;connectable=0;strokeColor=inherit;overflow=hidden;fillColor=none;top=0;left=0;bottom=0;right=0;pointerEvents=1;" vertex="1" parent="6TUqdnj37lVu8lsGp0ND-112">
          <mxGeometry x="501" width="100" height="96" as="geometry">
            <mxRectangle width="100" height="96" as="alternateBounds" />
          </mxGeometry>
        </mxCell>
        <mxCell id="6TUqdnj37lVu8lsGp0ND-119" value="" style="shape=partialRectangle;html=1;whiteSpace=wrap;connectable=0;strokeColor=inherit;overflow=hidden;fillColor=none;top=0;left=0;bottom=0;right=0;pointerEvents=1;" vertex="1" parent="6TUqdnj37lVu8lsGp0ND-112">
          <mxGeometry x="601" width="101" height="96" as="geometry">
            <mxRectangle width="101" height="96" as="alternateBounds" />
          </mxGeometry>
        </mxCell>
        <mxCell id="6TUqdnj37lVu8lsGp0ND-120" value="" style="shape=partialRectangle;html=1;whiteSpace=wrap;connectable=0;strokeColor=inherit;overflow=hidden;fillColor=none;top=0;left=0;bottom=0;right=0;pointerEvents=1;" vertex="1" parent="6TUqdnj37lVu8lsGp0ND-112">
          <mxGeometry x="702" width="98" height="96" as="geometry">
            <mxRectangle width="98" height="96" as="alternateBounds" />
          </mxGeometry>
        </mxCell>
        <mxCell id="6TUqdnj37lVu8lsGp0ND-121" value="" style="shape=tableRow;horizontal=0;startSize=0;swimlaneHead=0;swimlaneBody=0;strokeColor=inherit;top=0;left=0;bottom=0;right=0;collapsible=0;dropTarget=0;fillColor=none;points=[[0,0.5],[1,0.5]];portConstraint=eastwest;" vertex="1" parent="6TUqdnj37lVu8lsGp0ND-75">
          <mxGeometry y="471" width="800" height="93" as="geometry" />
        </mxCell>
        <mxCell id="6TUqdnj37lVu8lsGp0ND-122" value="" style="shape=partialRectangle;html=1;whiteSpace=wrap;connectable=0;strokeColor=inherit;overflow=hidden;fillColor=none;top=0;left=0;bottom=0;right=0;pointerEvents=1;" vertex="1" parent="6TUqdnj37lVu8lsGp0ND-121">
          <mxGeometry width="101" height="93" as="geometry">
            <mxRectangle width="101" height="93" as="alternateBounds" />
          </mxGeometry>
        </mxCell>
        <mxCell id="6TUqdnj37lVu8lsGp0ND-123" value="" style="shape=partialRectangle;html=1;whiteSpace=wrap;connectable=0;strokeColor=inherit;overflow=hidden;fillColor=none;top=0;left=0;bottom=0;right=0;pointerEvents=1;" vertex="1" parent="6TUqdnj37lVu8lsGp0ND-121">
          <mxGeometry x="101" width="100" height="93" as="geometry">
            <mxRectangle width="100" height="93" as="alternateBounds" />
          </mxGeometry>
        </mxCell>
        <mxCell id="6TUqdnj37lVu8lsGp0ND-124" value="" style="shape=partialRectangle;html=1;whiteSpace=wrap;connectable=0;strokeColor=inherit;overflow=hidden;fillColor=none;top=0;left=0;bottom=0;right=0;pointerEvents=1;" vertex="1" parent="6TUqdnj37lVu8lsGp0ND-121">
          <mxGeometry x="201" width="101" height="93" as="geometry">
            <mxRectangle width="101" height="93" as="alternateBounds" />
          </mxGeometry>
        </mxCell>
        <mxCell id="6TUqdnj37lVu8lsGp0ND-125" value="" style="shape=partialRectangle;html=1;whiteSpace=wrap;connectable=0;strokeColor=inherit;overflow=hidden;fillColor=none;top=0;left=0;bottom=0;right=0;pointerEvents=1;" vertex="1" parent="6TUqdnj37lVu8lsGp0ND-121">
          <mxGeometry x="302" width="98" height="93" as="geometry">
            <mxRectangle width="98" height="93" as="alternateBounds" />
          </mxGeometry>
        </mxCell>
        <mxCell id="6TUqdnj37lVu8lsGp0ND-126" value="" style="shape=partialRectangle;html=1;whiteSpace=wrap;connectable=0;strokeColor=inherit;overflow=hidden;fillColor=none;top=0;left=0;bottom=0;right=0;pointerEvents=1;" vertex="1" parent="6TUqdnj37lVu8lsGp0ND-121">
          <mxGeometry x="400" width="101" height="93" as="geometry">
            <mxRectangle width="101" height="93" as="alternateBounds" />
          </mxGeometry>
        </mxCell>
        <mxCell id="6TUqdnj37lVu8lsGp0ND-127" value="" style="shape=partialRectangle;html=1;whiteSpace=wrap;connectable=0;strokeColor=inherit;overflow=hidden;fillColor=none;top=0;left=0;bottom=0;right=0;pointerEvents=1;" vertex="1" parent="6TUqdnj37lVu8lsGp0ND-121">
          <mxGeometry x="501" width="100" height="93" as="geometry">
            <mxRectangle width="100" height="93" as="alternateBounds" />
          </mxGeometry>
        </mxCell>
        <mxCell id="6TUqdnj37lVu8lsGp0ND-128" value="" style="shape=partialRectangle;html=1;whiteSpace=wrap;connectable=0;strokeColor=inherit;overflow=hidden;fillColor=none;top=0;left=0;bottom=0;right=0;pointerEvents=1;" vertex="1" parent="6TUqdnj37lVu8lsGp0ND-121">
          <mxGeometry x="601" width="101" height="93" as="geometry">
            <mxRectangle width="101" height="93" as="alternateBounds" />
          </mxGeometry>
        </mxCell>
        <mxCell id="6TUqdnj37lVu8lsGp0ND-129" value="" style="shape=partialRectangle;html=1;whiteSpace=wrap;connectable=0;strokeColor=inherit;overflow=hidden;fillColor=none;top=0;left=0;bottom=0;right=0;pointerEvents=1;" vertex="1" parent="6TUqdnj37lVu8lsGp0ND-121">
          <mxGeometry x="702" width="98" height="93" as="geometry">
            <mxRectangle width="98" height="93" as="alternateBounds" />
          </mxGeometry>
        </mxCell>
        <mxCell id="6TUqdnj37lVu8lsGp0ND-130" value="" style="shape=tableRow;horizontal=0;startSize=0;swimlaneHead=0;swimlaneBody=0;strokeColor=inherit;top=0;left=0;bottom=0;right=0;collapsible=0;dropTarget=0;fillColor=none;points=[[0,0.5],[1,0.5]];portConstraint=eastwest;" vertex="1" parent="6TUqdnj37lVu8lsGp0ND-75">
          <mxGeometry y="564" width="800" height="95" as="geometry" />
        </mxCell>
        <mxCell id="6TUqdnj37lVu8lsGp0ND-131" value="" style="shape=partialRectangle;html=1;whiteSpace=wrap;connectable=0;strokeColor=inherit;overflow=hidden;fillColor=none;top=0;left=0;bottom=0;right=0;pointerEvents=1;" vertex="1" parent="6TUqdnj37lVu8lsGp0ND-130">
          <mxGeometry width="101" height="95" as="geometry">
            <mxRectangle width="101" height="95" as="alternateBounds" />
          </mxGeometry>
        </mxCell>
        <mxCell id="6TUqdnj37lVu8lsGp0ND-132" value="" style="shape=partialRectangle;html=1;whiteSpace=wrap;connectable=0;strokeColor=inherit;overflow=hidden;fillColor=none;top=0;left=0;bottom=0;right=0;pointerEvents=1;" vertex="1" parent="6TUqdnj37lVu8lsGp0ND-130">
          <mxGeometry x="101" width="100" height="95" as="geometry">
            <mxRectangle width="100" height="95" as="alternateBounds" />
          </mxGeometry>
        </mxCell>
        <mxCell id="6TUqdnj37lVu8lsGp0ND-133" value="" style="shape=partialRectangle;html=1;whiteSpace=wrap;connectable=0;strokeColor=inherit;overflow=hidden;fillColor=none;top=0;left=0;bottom=0;right=0;pointerEvents=1;" vertex="1" parent="6TUqdnj37lVu8lsGp0ND-130">
          <mxGeometry x="201" width="101" height="95" as="geometry">
            <mxRectangle width="101" height="95" as="alternateBounds" />
          </mxGeometry>
        </mxCell>
        <mxCell id="6TUqdnj37lVu8lsGp0ND-134" value="" style="shape=partialRectangle;html=1;whiteSpace=wrap;connectable=0;strokeColor=inherit;overflow=hidden;fillColor=none;top=0;left=0;bottom=0;right=0;pointerEvents=1;" vertex="1" parent="6TUqdnj37lVu8lsGp0ND-130">
          <mxGeometry x="302" width="98" height="95" as="geometry">
            <mxRectangle width="98" height="95" as="alternateBounds" />
          </mxGeometry>
        </mxCell>
        <mxCell id="6TUqdnj37lVu8lsGp0ND-135" value="" style="shape=partialRectangle;html=1;whiteSpace=wrap;connectable=0;strokeColor=inherit;overflow=hidden;fillColor=none;top=0;left=0;bottom=0;right=0;pointerEvents=1;" vertex="1" parent="6TUqdnj37lVu8lsGp0ND-130">
          <mxGeometry x="400" width="101" height="95" as="geometry">
            <mxRectangle width="101" height="95" as="alternateBounds" />
          </mxGeometry>
        </mxCell>
        <mxCell id="6TUqdnj37lVu8lsGp0ND-136" value="" style="shape=partialRectangle;html=1;whiteSpace=wrap;connectable=0;strokeColor=inherit;overflow=hidden;fillColor=none;top=0;left=0;bottom=0;right=0;pointerEvents=1;" vertex="1" parent="6TUqdnj37lVu8lsGp0ND-130">
          <mxGeometry x="501" width="100" height="95" as="geometry">
            <mxRectangle width="100" height="95" as="alternateBounds" />
          </mxGeometry>
        </mxCell>
        <mxCell id="6TUqdnj37lVu8lsGp0ND-137" value="" style="shape=partialRectangle;html=1;whiteSpace=wrap;connectable=0;strokeColor=inherit;overflow=hidden;fillColor=none;top=0;left=0;bottom=0;right=0;pointerEvents=1;" vertex="1" parent="6TUqdnj37lVu8lsGp0ND-130">
          <mxGeometry x="601" width="101" height="95" as="geometry">
            <mxRectangle width="101" height="95" as="alternateBounds" />
          </mxGeometry>
        </mxCell>
        <mxCell id="6TUqdnj37lVu8lsGp0ND-138" value="" style="shape=partialRectangle;html=1;whiteSpace=wrap;connectable=0;strokeColor=inherit;overflow=hidden;fillColor=none;top=0;left=0;bottom=0;right=0;pointerEvents=1;" vertex="1" parent="6TUqdnj37lVu8lsGp0ND-130">
          <mxGeometry x="702" width="98" height="95" as="geometry">
            <mxRectangle width="98" height="95" as="alternateBounds" />
          </mxGeometry>
        </mxCell>
        <mxCell id="6TUqdnj37lVu8lsGp0ND-139" value="" style="shape=tableRow;horizontal=0;startSize=0;swimlaneHead=0;swimlaneBody=0;strokeColor=inherit;top=0;left=0;bottom=0;right=0;collapsible=0;dropTarget=0;fillColor=none;points=[[0,0.5],[1,0.5]];portConstraint=eastwest;" vertex="1" parent="6TUqdnj37lVu8lsGp0ND-75">
          <mxGeometry y="659" width="800" height="91" as="geometry" />
        </mxCell>
        <mxCell id="6TUqdnj37lVu8lsGp0ND-140" value="" style="shape=partialRectangle;html=1;whiteSpace=wrap;connectable=0;strokeColor=inherit;overflow=hidden;fillColor=none;top=0;left=0;bottom=0;right=0;pointerEvents=1;" vertex="1" parent="6TUqdnj37lVu8lsGp0ND-139">
          <mxGeometry width="101" height="91" as="geometry">
            <mxRectangle width="101" height="91" as="alternateBounds" />
          </mxGeometry>
        </mxCell>
        <mxCell id="6TUqdnj37lVu8lsGp0ND-141" value="" style="shape=partialRectangle;html=1;whiteSpace=wrap;connectable=0;strokeColor=inherit;overflow=hidden;fillColor=none;top=0;left=0;bottom=0;right=0;pointerEvents=1;" vertex="1" parent="6TUqdnj37lVu8lsGp0ND-139">
          <mxGeometry x="101" width="100" height="91" as="geometry">
            <mxRectangle width="100" height="91" as="alternateBounds" />
          </mxGeometry>
        </mxCell>
        <mxCell id="6TUqdnj37lVu8lsGp0ND-142" value="" style="shape=partialRectangle;html=1;whiteSpace=wrap;connectable=0;strokeColor=inherit;overflow=hidden;fillColor=none;top=0;left=0;bottom=0;right=0;pointerEvents=1;" vertex="1" parent="6TUqdnj37lVu8lsGp0ND-139">
          <mxGeometry x="201" width="101" height="91" as="geometry">
            <mxRectangle width="101" height="91" as="alternateBounds" />
          </mxGeometry>
        </mxCell>
        <mxCell id="6TUqdnj37lVu8lsGp0ND-143" value="" style="shape=partialRectangle;html=1;whiteSpace=wrap;connectable=0;strokeColor=inherit;overflow=hidden;fillColor=none;top=0;left=0;bottom=0;right=0;pointerEvents=1;" vertex="1" parent="6TUqdnj37lVu8lsGp0ND-139">
          <mxGeometry x="302" width="98" height="91" as="geometry">
            <mxRectangle width="98" height="91" as="alternateBounds" />
          </mxGeometry>
        </mxCell>
        <mxCell id="6TUqdnj37lVu8lsGp0ND-144" value="" style="shape=partialRectangle;html=1;whiteSpace=wrap;connectable=0;strokeColor=inherit;overflow=hidden;fillColor=none;top=0;left=0;bottom=0;right=0;pointerEvents=1;" vertex="1" parent="6TUqdnj37lVu8lsGp0ND-139">
          <mxGeometry x="400" width="101" height="91" as="geometry">
            <mxRectangle width="101" height="91" as="alternateBounds" />
          </mxGeometry>
        </mxCell>
        <mxCell id="6TUqdnj37lVu8lsGp0ND-145" value="" style="shape=partialRectangle;html=1;whiteSpace=wrap;connectable=0;strokeColor=inherit;overflow=hidden;fillColor=none;top=0;left=0;bottom=0;right=0;pointerEvents=1;" vertex="1" parent="6TUqdnj37lVu8lsGp0ND-139">
          <mxGeometry x="501" width="100" height="91" as="geometry">
            <mxRectangle width="100" height="91" as="alternateBounds" />
          </mxGeometry>
        </mxCell>
        <mxCell id="6TUqdnj37lVu8lsGp0ND-146" value="" style="shape=partialRectangle;html=1;whiteSpace=wrap;connectable=0;strokeColor=inherit;overflow=hidden;fillColor=none;top=0;left=0;bottom=0;right=0;pointerEvents=1;" vertex="1" parent="6TUqdnj37lVu8lsGp0ND-139">
          <mxGeometry x="601" width="101" height="91" as="geometry">
            <mxRectangle width="101" height="91" as="alternateBounds" />
          </mxGeometry>
        </mxCell>
        <mxCell id="6TUqdnj37lVu8lsGp0ND-147" value="" style="shape=partialRectangle;html=1;whiteSpace=wrap;connectable=0;strokeColor=inherit;overflow=hidden;fillColor=none;top=0;left=0;bottom=0;right=0;pointerEvents=1;" vertex="1" parent="6TUqdnj37lVu8lsGp0ND-139">
          <mxGeometry x="702" width="98" height="91" as="geometry">
            <mxRectangle width="98" height="91" as="alternateBounds" />
          </mxGeometry>
        </mxCell>
        <mxCell id="6TUqdnj37lVu8lsGp0ND-148" value="" style="shape=image;html=1;verticalAlign=top;verticalLabelPosition=bottom;labelBackgroundColor=#ffffff;imageAspect=0;aspect=fixed;image=https://cdn2.iconfinder.com/data/icons/chess-58/420/Crown-128.png" vertex="1" parent="1">
          <mxGeometry x="324" y="-860" width="90" height="90" as="geometry" />
        </mxCell>
        <mxCell id="6TUqdnj37lVu8lsGp0ND-149" value="" style="shape=image;html=1;verticalAlign=top;verticalLabelPosition=bottom;labelBackgroundColor=#ffffff;imageAspect=0;aspect=fixed;image=https://cdn2.iconfinder.com/data/icons/chess-58/420/Crown-128.png" vertex="1" parent="1">
          <mxGeometry x="220" y="-1050" width="90" height="90" as="geometry" />
        </mxCell>
        <mxCell id="6TUqdnj37lVu8lsGp0ND-150" value="" style="shape=image;html=1;verticalAlign=top;verticalLabelPosition=bottom;labelBackgroundColor=#ffffff;imageAspect=0;aspect=fixed;image=https://cdn2.iconfinder.com/data/icons/chess-58/420/Crown-128.png" vertex="1" parent="1">
          <mxGeometry x="710" y="-950" width="90" height="90" as="geometry" />
        </mxCell>
        <mxCell id="6TUqdnj37lVu8lsGp0ND-151" value="" style="shape=image;html=1;verticalAlign=top;verticalLabelPosition=bottom;labelBackgroundColor=#ffffff;imageAspect=0;aspect=fixed;image=https://cdn2.iconfinder.com/data/icons/chess-58/420/Crown-128.png" vertex="1" parent="1">
          <mxGeometry x="130" y="-770" width="90" height="90" as="geometry" />
        </mxCell>
        <mxCell id="6TUqdnj37lVu8lsGp0ND-152" value="" style="shape=image;html=1;verticalAlign=top;verticalLabelPosition=bottom;labelBackgroundColor=#ffffff;imageAspect=0;aspect=fixed;image=https://cdn2.iconfinder.com/data/icons/chess-58/420/Crown-128.png" vertex="1" parent="1">
          <mxGeometry x="530" y="-674" width="90" height="90" as="geometry" />
        </mxCell>
        <mxCell id="6TUqdnj37lVu8lsGp0ND-153" value="" style="shape=image;html=1;verticalAlign=top;verticalLabelPosition=bottom;labelBackgroundColor=#ffffff;imageAspect=0;aspect=fixed;image=https://cdn2.iconfinder.com/data/icons/chess-58/420/Crown-128.png" vertex="1" parent="1">
          <mxGeometry x="10" y="-590" width="90" height="90" as="geometry" />
        </mxCell>
        <mxCell id="6TUqdnj37lVu8lsGp0ND-154" value="" style="shape=image;html=1;verticalAlign=top;verticalLabelPosition=bottom;labelBackgroundColor=#ffffff;imageAspect=0;aspect=fixed;image=https://cdn2.iconfinder.com/data/icons/chess-58/420/Crown-128.png" vertex="1" parent="1">
          <mxGeometry x="414" y="-490" width="90" height="90" as="geometry" />
        </mxCell>
        <mxCell id="6TUqdnj37lVu8lsGp0ND-155" value="" style="shape=image;html=1;verticalAlign=top;verticalLabelPosition=bottom;labelBackgroundColor=#ffffff;imageAspect=0;aspect=fixed;image=https://cdn2.iconfinder.com/data/icons/chess-58/420/Crown-128.png" vertex="1" parent="1">
          <mxGeometry x="610" y="-1150" width="90" height="90" as="geometry" />
        </mxCell>
      </root>
    </mxGraphModel>
  </diagram>
</mxfile>
